<svg xmlns="http://www.w3.org/2000/svg" xmlns:xlink="http://www.w3.org/1999/xlink" width="500" zoomAndPan="magnify" viewBox="0 0 375 374.999991" height="500" preserveAspectRatio="xMidYMid meet" version="1.0"><defs><clipPath id="cb4e12dbd1"><path d="M 41.902344 6.636719 L 332.902344 6.636719 L 332.902344 368.136719 L 41.902344 368.136719 Z M 41.902344 6.636719 " clip-rule="nonzero"/></clipPath></defs><g clip-path="url(#cb4e12dbd1)"><path fill="#a4243b" d="M 333.089844 257.769531 C 333.089844 316.046875 287.433594 364.226562 229.683594 367.699219 L 229.683594 368.226562 L 122.273438 368.226562 C 78.089844 368.226562 41.902344 332.039062 41.902344 287.855469 L 41.902344 147.3125 L 172.453125 147.3125 C 188.96875 147.3125 202.539062 133.738281 202.539062 117.222656 C 202.539062 100.183594 188.96875 87.136719 172.453125 87.136719 L 122.273438 87.136719 C 78.089844 87.136719 41.902344 50.949219 41.902344 6.765625 L 172.453125 6.765625 C 182.972656 6.765625 193.074219 7.820312 202.539062 10.765625 C 248.722656 23.808594 282.910156 66.519531 282.910156 117.222656 C 282.910156 132.265625 279.859375 146.890625 274.390625 159.933594 C 309 178.449219 333.089844 215.164062 333.089844 257.769531 Z M 252.824219 257.769531 C 252.824219 240.726562 239.253906 227.683594 222.738281 227.683594 L 122.273438 227.683594 L 122.273438 287.960938 L 222.738281 287.960938 C 239.253906 287.960938 252.824219 274.390625 252.824219 257.769531 Z M 252.824219 257.769531 " fill-opacity="1" fill-rule="nonzero"/></g></svg>