<svg xmlns="http://www.w3.org/2000/svg" xmlns:xlink="http://www.w3.org/1999/xlink" width="500" zoomAndPan="magnify" viewBox="0 0 375 374.999991" height="500" preserveAspectRatio="xMidYMid meet" version="1.0"><defs><clipPath id="7b0ed0eee9"><path d="M 42.722656 7.652344 L 332.222656 7.652344 L 332.222656 367.652344 L 42.722656 367.652344 Z M 42.722656 7.652344 " clip-rule="nonzero"/></clipPath></defs><g clip-path="url(#7b0ed0eee9)"><path fill="#a4243b" d="M 332.269531 257.371094 C 332.269531 315.324219 286.871094 363.230469 229.445312 366.683594 L 229.445312 367.207031 L 122.640625 367.207031 C 78.707031 367.207031 42.722656 331.222656 42.722656 287.289062 L 42.722656 147.535156 L 172.539062 147.535156 C 188.960938 147.535156 202.457031 134.042969 202.457031 117.617188 C 202.457031 100.671875 188.960938 87.703125 172.539062 87.703125 L 122.640625 87.703125 C 78.707031 87.703125 42.722656 51.71875 42.722656 7.785156 L 172.539062 7.785156 C 183 7.785156 193.039062 8.828125 202.457031 11.757812 C 248.375 24.730469 282.375 67.199219 282.375 117.617188 C 282.375 132.578125 279.339844 147.117188 273.902344 160.089844 C 308.316406 178.5 332.269531 215.007812 332.269531 257.371094 Z M 252.457031 257.371094 C 252.457031 240.425781 238.960938 227.453125 222.539062 227.453125 L 122.640625 227.453125 L 122.640625 287.394531 L 222.539062 287.394531 C 238.960938 287.394531 252.457031 273.898438 252.457031 257.371094 Z M 252.457031 257.371094 " fill-opacity="1" fill-rule="nonzero"/></g></svg>