<svg xmlns="http://www.w3.org/2000/svg" xmlns:xlink="http://www.w3.org/1999/xlink" width="500" zoomAndPan="magnify" viewBox="0 0 375 374.999991" height="500" preserveAspectRatio="xMidYMid meet" version="1.0"><defs><g/><clipPath id="eed79e7281"><path d="M 3.757812 156.445312 L 45.757812 156.445312 L 45.757812 208.195312 L 3.757812 208.195312 Z M 3.757812 156.445312 " clip-rule="nonzero"/></clipPath></defs><g clip-path="url(#eed79e7281)"><path fill="#a4243b" d="M 45.582031 192.515625 C 45.582031 200.886719 39.023438 207.804688 30.730469 208.304688 L 30.730469 208.378906 L 15.300781 208.378906 C 8.957031 208.378906 3.757812 203.183594 3.757812 196.835938 L 3.757812 176.648438 L 22.507812 176.648438 C 24.882812 176.648438 26.832031 174.699219 26.832031 172.328125 C 26.832031 169.878906 24.882812 168.007812 22.507812 168.007812 L 15.300781 168.007812 C 8.957031 168.007812 3.757812 162.808594 3.757812 156.464844 L 22.507812 156.464844 C 24.019531 156.464844 25.46875 156.613281 26.832031 157.039062 C 33.464844 158.910156 38.375 165.046875 38.375 172.328125 C 38.375 174.488281 37.9375 176.589844 37.148438 178.464844 C 42.121094 181.121094 45.582031 186.394531 45.582031 192.515625 Z M 34.050781 192.515625 C 34.050781 190.066406 32.105469 188.195312 29.730469 188.195312 L 15.300781 188.195312 L 15.300781 196.851562 L 29.730469 196.851562 C 32.105469 196.851562 34.050781 194.902344 34.050781 192.515625 Z M 34.050781 192.515625 " fill-opacity="1" fill-rule="nonzero"/></g><g fill="#000000" fill-opacity="1"><g transform="translate(83.687899, 196.300065)"><g><path d="M 11.578125 -6.15625 C 12.035156 -6.03125 12.625 -5.941406 13.34375 -5.890625 C 14.070312 -5.835938 14.765625 -5.8125 15.421875 -5.8125 C 16.734375 -5.8125 17.828125 -6.082031 18.703125 -6.625 C 19.578125 -7.164062 20.015625 -8.015625 20.015625 -9.171875 C 20.015625 -10.253906 19.648438 -11.023438 18.921875 -11.484375 C 18.203125 -11.941406 17.101562 -12.171875 15.625 -12.171875 L 11.578125 -12.171875 Z M 11.578125 -18.1875 L 15.171875 -18.1875 C 16.585938 -18.1875 17.613281 -18.445312 18.25 -18.96875 C 18.894531 -19.5 19.21875 -20.273438 19.21875 -21.296875 C 19.21875 -22.179688 18.847656 -22.882812 18.109375 -23.40625 C 17.367188 -23.9375 16.257812 -24.203125 14.78125 -24.203125 C 14.289062 -24.203125 13.722656 -24.179688 13.078125 -24.140625 C 12.441406 -24.109375 11.941406 -24.0625 11.578125 -24 Z M 14.78125 0.78125 C 14.226562 0.78125 13.570312 0.765625 12.8125 0.734375 C 12.050781 0.703125 11.269531 0.632812 10.46875 0.53125 C 9.664062 0.4375 8.867188 0.316406 8.078125 0.171875 C 7.296875 0.0234375 6.570312 -0.175781 5.90625 -0.4375 C 4.101562 -1.132812 3.203125 -2.335938 3.203125 -4.046875 L 3.203125 -27.0625 C 3.203125 -27.75 3.390625 -28.28125 3.765625 -28.65625 C 4.148438 -29.03125 4.671875 -29.332031 5.328125 -29.5625 C 6.441406 -29.957031 7.835938 -30.242188 9.515625 -30.421875 C 11.191406 -30.609375 12.914062 -30.703125 14.6875 -30.703125 C 18.894531 -30.703125 22.128906 -29.992188 24.390625 -28.578125 C 26.660156 -27.171875 27.796875 -24.988281 27.796875 -22.03125 C 27.796875 -20.550781 27.367188 -19.273438 26.515625 -18.203125 C 25.660156 -17.140625 24.507812 -16.363281 23.0625 -15.875 C 24.707031 -15.40625 26.078125 -14.5625 27.171875 -13.34375 C 28.273438 -12.132812 28.828125 -10.609375 28.828125 -8.765625 C 28.828125 -5.515625 27.617188 -3.109375 25.203125 -1.546875 C 22.785156 0.00390625 19.3125 0.78125 14.78125 0.78125 Z M 14.78125 0.78125 "/></g></g></g><g fill="#000000" fill-opacity="1"><g transform="translate(123.20133, 196.300065)"><g><path d="M 11.828125 -0.203125 C 11.460938 -0.0976562 10.894531 0 10.125 0.09375 C 9.351562 0.195312 8.585938 0.25 7.828125 0.25 C 7.078125 0.25 6.414062 0.191406 5.84375 0.078125 C 5.269531 -0.0351562 4.785156 -0.238281 4.390625 -0.53125 C 3.992188 -0.832031 3.695312 -1.242188 3.5 -1.765625 C 3.300781 -2.296875 3.203125 -2.988281 3.203125 -3.84375 L 3.203125 -29.859375 C 3.566406 -29.929688 4.140625 -30.023438 4.921875 -30.140625 C 5.710938 -30.253906 6.46875 -30.3125 7.1875 -30.3125 C 7.945312 -30.3125 8.613281 -30.253906 9.1875 -30.140625 C 9.757812 -30.023438 10.242188 -29.816406 10.640625 -29.515625 C 11.035156 -29.222656 11.332031 -28.8125 11.53125 -28.28125 C 11.726562 -27.757812 11.828125 -27.070312 11.828125 -26.21875 Z M 11.828125 -0.203125 "/></g></g></g><g fill="#000000" fill-opacity="1"><g transform="translate(147.245383, 196.300065)"><g><path d="M 1.828125 -22.96875 C 1.597656 -23.320312 1.382812 -23.8125 1.1875 -24.4375 C 0.988281 -25.0625 0.890625 -25.722656 0.890625 -26.421875 C 0.890625 -27.703125 1.175781 -28.617188 1.75 -29.171875 C 2.320312 -29.734375 3.066406 -30.015625 3.984375 -30.015625 L 25.484375 -30.015625 C 25.710938 -29.648438 25.925781 -29.15625 26.125 -28.53125 C 26.320312 -27.90625 26.421875 -27.25 26.421875 -26.5625 C 26.421875 -25.28125 26.128906 -24.359375 25.546875 -23.796875 C 24.972656 -23.242188 24.226562 -22.96875 23.3125 -22.96875 L 17.84375 -22.96875 L 17.84375 -0.203125 C 17.476562 -0.0976562 16.910156 0 16.140625 0.09375 C 15.367188 0.195312 14.601562 0.25 13.84375 0.25 C 13.09375 0.25 12.425781 0.191406 11.84375 0.078125 C 11.269531 -0.0351562 10.785156 -0.238281 10.390625 -0.53125 C 10.003906 -0.832031 9.710938 -1.242188 9.515625 -1.765625 C 9.316406 -2.296875 9.21875 -2.988281 9.21875 -3.84375 L 9.21875 -22.96875 Z M 1.828125 -22.96875 "/></g></g></g><g fill="#000000" fill-opacity="1"><g transform="translate(183.655079, 196.300065)"><g><path d="M 11.578125 -6.15625 C 12.035156 -6.03125 12.625 -5.941406 13.34375 -5.890625 C 14.070312 -5.835938 14.765625 -5.8125 15.421875 -5.8125 C 16.734375 -5.8125 17.828125 -6.082031 18.703125 -6.625 C 19.578125 -7.164062 20.015625 -8.015625 20.015625 -9.171875 C 20.015625 -10.253906 19.648438 -11.023438 18.921875 -11.484375 C 18.203125 -11.941406 17.101562 -12.171875 15.625 -12.171875 L 11.578125 -12.171875 Z M 11.578125 -18.1875 L 15.171875 -18.1875 C 16.585938 -18.1875 17.613281 -18.445312 18.25 -18.96875 C 18.894531 -19.5 19.21875 -20.273438 19.21875 -21.296875 C 19.21875 -22.179688 18.847656 -22.882812 18.109375 -23.40625 C 17.367188 -23.9375 16.257812 -24.203125 14.78125 -24.203125 C 14.289062 -24.203125 13.722656 -24.179688 13.078125 -24.140625 C 12.441406 -24.109375 11.941406 -24.0625 11.578125 -24 Z M 14.78125 0.78125 C 14.226562 0.78125 13.570312 0.765625 12.8125 0.734375 C 12.050781 0.703125 11.269531 0.632812 10.46875 0.53125 C 9.664062 0.4375 8.867188 0.316406 8.078125 0.171875 C 7.296875 0.0234375 6.570312 -0.175781 5.90625 -0.4375 C 4.101562 -1.132812 3.203125 -2.335938 3.203125 -4.046875 L 3.203125 -27.0625 C 3.203125 -27.75 3.390625 -28.28125 3.765625 -28.65625 C 4.148438 -29.03125 4.671875 -29.332031 5.328125 -29.5625 C 6.441406 -29.957031 7.835938 -30.242188 9.515625 -30.421875 C 11.191406 -30.609375 12.914062 -30.703125 14.6875 -30.703125 C 18.894531 -30.703125 22.128906 -29.992188 24.390625 -28.578125 C 26.660156 -27.171875 27.796875 -24.988281 27.796875 -22.03125 C 27.796875 -20.550781 27.367188 -19.273438 26.515625 -18.203125 C 25.660156 -17.140625 24.507812 -16.363281 23.0625 -15.875 C 24.707031 -15.40625 26.078125 -14.5625 27.171875 -13.34375 C 28.273438 -12.132812 28.828125 -10.609375 28.828125 -8.765625 C 28.828125 -5.515625 27.617188 -3.109375 25.203125 -1.546875 C 22.785156 0.00390625 19.3125 0.78125 14.78125 0.78125 Z M 14.78125 0.78125 "/></g></g></g><g fill="#000000" fill-opacity="1"><g transform="translate(223.168504, 196.300065)"><g><path d="M 7.78125 0.140625 C 6.375 0.140625 5.257812 -0.265625 4.4375 -1.078125 C 3.613281 -1.898438 3.203125 -3.019531 3.203125 -4.4375 L 3.203125 -29.90625 C 3.566406 -29.976562 4.140625 -30.070312 4.921875 -30.1875 C 5.710938 -30.300781 6.46875 -30.359375 7.1875 -30.359375 C 7.945312 -30.359375 8.613281 -30.300781 9.1875 -30.1875 C 9.757812 -30.070312 10.242188 -29.863281 10.640625 -29.5625 C 11.035156 -29.269531 11.332031 -28.859375 11.53125 -28.328125 C 11.726562 -27.804688 11.828125 -27.117188 11.828125 -26.265625 L 11.828125 -6.796875 L 23.109375 -6.796875 C 23.335938 -6.441406 23.550781 -5.957031 23.75 -5.34375 C 23.945312 -4.738281 24.046875 -4.109375 24.046875 -3.453125 C 24.046875 -2.140625 23.765625 -1.210938 23.203125 -0.671875 C 22.648438 -0.128906 21.914062 0.140625 21 0.140625 Z M 7.78125 0.140625 "/></g></g></g><g fill="#000000" fill-opacity="1"><g transform="translate(257.459784, 196.300065)"><g><path d="M 1.71875 -14.984375 C 1.71875 -17.546875 2.117188 -19.8125 2.921875 -21.78125 C 3.734375 -23.75 4.835938 -25.398438 6.234375 -26.734375 C 7.628906 -28.066406 9.269531 -29.078125 11.15625 -29.765625 C 13.050781 -30.453125 15.097656 -30.796875 17.296875 -30.796875 C 19.492188 -30.796875 21.535156 -30.453125 23.421875 -29.765625 C 25.316406 -29.078125 26.96875 -28.066406 28.375 -26.734375 C 29.789062 -25.398438 30.898438 -23.75 31.703125 -21.78125 C 32.515625 -19.8125 32.921875 -17.546875 32.921875 -14.984375 C 32.921875 -12.421875 32.523438 -10.144531 31.734375 -8.15625 C 30.941406 -6.164062 29.847656 -4.503906 28.453125 -3.171875 C 27.054688 -1.847656 25.40625 -0.835938 23.5 -0.140625 C 21.601562 0.546875 19.535156 0.890625 17.296875 0.890625 C 15.066406 0.890625 13 0.535156 11.09375 -0.171875 C 9.1875 -0.878906 7.539062 -1.90625 6.15625 -3.25 C 4.78125 -4.59375 3.695312 -6.25 2.90625 -8.21875 C 2.113281 -10.195312 1.71875 -12.453125 1.71875 -14.984375 Z M 10.59375 -14.984375 C 10.59375 -11.992188 11.203125 -9.757812 12.421875 -8.28125 C 13.640625 -6.800781 15.265625 -6.0625 17.296875 -6.0625 C 19.367188 -6.0625 21.007812 -6.800781 22.21875 -8.28125 C 23.4375 -9.757812 24.046875 -11.992188 24.046875 -14.984375 C 24.046875 -17.941406 23.445312 -20.160156 22.25 -21.640625 C 21.050781 -23.117188 19.414062 -23.859375 17.34375 -23.859375 C 15.3125 -23.859375 13.675781 -23.125 12.4375 -21.65625 C 11.207031 -20.195312 10.59375 -17.972656 10.59375 -14.984375 Z M 10.59375 -14.984375 "/></g></g></g><g fill="#000000" fill-opacity="1"><g transform="translate(301.11153, 196.300065)"><g><path d="M 30.265625 -4.875 C 30.265625 -3.851562 30.082031 -3.097656 29.71875 -2.609375 C 29.351562 -2.117188 28.773438 -1.644531 27.984375 -1.1875 C 27.523438 -0.914062 26.953125 -0.65625 26.265625 -0.40625 C 25.578125 -0.164062 24.820312 0.0390625 24 0.21875 C 23.175781 0.40625 22.3125 0.546875 21.40625 0.640625 C 20.507812 0.734375 19.617188 0.78125 18.734375 0.78125 C 16.359375 0.78125 14.132812 0.460938 12.0625 -0.171875 C 10 -0.816406 8.203125 -1.785156 6.671875 -3.078125 C 5.148438 -4.378906 3.941406 -6 3.046875 -7.9375 C 2.160156 -9.875 1.71875 -12.125 1.71875 -14.6875 C 1.71875 -17.382812 2.203125 -19.734375 3.171875 -21.734375 C 4.140625 -23.734375 5.421875 -25.398438 7.015625 -26.734375 C 8.609375 -28.066406 10.429688 -29.0625 12.484375 -29.71875 C 14.546875 -30.375 16.660156 -30.703125 18.828125 -30.703125 C 21.941406 -30.703125 24.410156 -30.203125 26.234375 -29.203125 C 28.066406 -28.203125 28.984375 -26.894531 28.984375 -25.28125 C 28.984375 -24.425781 28.769531 -23.6875 28.34375 -23.0625 C 27.914062 -22.4375 27.421875 -21.941406 26.859375 -21.578125 C 26.035156 -22.078125 25.007812 -22.5625 23.78125 -23.03125 C 22.550781 -23.507812 21.160156 -23.75 19.609375 -23.75 C 16.847656 -23.75 14.65625 -22.957031 13.03125 -21.375 C 11.40625 -19.800781 10.59375 -17.617188 10.59375 -14.828125 C 10.59375 -13.316406 10.8125 -12.007812 11.25 -10.90625 C 11.695312 -9.8125 12.296875 -8.910156 13.046875 -8.203125 C 13.804688 -7.492188 14.679688 -6.96875 15.671875 -6.625 C 16.660156 -6.28125 17.710938 -6.109375 18.828125 -6.109375 C 19.546875 -6.109375 20.179688 -6.171875 20.734375 -6.296875 C 21.296875 -6.429688 21.726562 -6.582031 22.03125 -6.75 L 22.03125 -11.390625 L 16.75 -11.390625 C 16.550781 -11.742188 16.363281 -12.21875 16.1875 -12.8125 C 16.007812 -13.40625 15.921875 -14.03125 15.921875 -14.6875 C 15.921875 -15.863281 16.191406 -16.710938 16.734375 -17.234375 C 17.273438 -17.765625 17.972656 -18.03125 18.828125 -18.03125 L 27.15625 -18.03125 C 28.132812 -18.03125 28.894531 -17.757812 29.4375 -17.21875 C 29.988281 -16.675781 30.265625 -15.914062 30.265625 -14.9375 Z M 30.265625 -4.875 "/></g></g></g><g fill="#000000" fill-opacity="1"><g transform="translate(342.841905, 196.300065)"><g><path d="M 11.671875 -11.875 C 10.234375 -12.363281 8.921875 -12.863281 7.734375 -13.375 C 6.554688 -13.882812 5.539062 -14.5 4.6875 -15.21875 C 3.832031 -15.945312 3.164062 -16.8125 2.6875 -17.8125 C 2.207031 -18.8125 1.96875 -20.035156 1.96875 -21.484375 C 1.96875 -24.273438 3.039062 -26.507812 5.1875 -28.1875 C 7.34375 -29.863281 10.363281 -30.703125 14.25 -30.703125 C 15.65625 -30.703125 16.96875 -30.601562 18.1875 -30.40625 C 19.40625 -30.207031 20.445312 -29.898438 21.3125 -29.484375 C 22.1875 -29.078125 22.867188 -28.550781 23.359375 -27.90625 C 23.847656 -27.269531 24.09375 -26.523438 24.09375 -25.671875 C 24.09375 -24.816406 23.894531 -24.085938 23.5 -23.484375 C 23.113281 -22.878906 22.640625 -22.363281 22.078125 -21.9375 C 21.359375 -22.394531 20.390625 -22.796875 19.171875 -23.140625 C 17.953125 -23.484375 16.617188 -23.65625 15.171875 -23.65625 C 13.703125 -23.65625 12.617188 -23.445312 11.921875 -23.03125 C 11.234375 -22.625 10.890625 -22.109375 10.890625 -21.484375 C 10.890625 -20.992188 11.101562 -20.59375 11.53125 -20.28125 C 11.957031 -19.96875 12.597656 -19.679688 13.453125 -19.421875 L 16.0625 -18.578125 C 19.15625 -17.585938 21.53125 -16.328125 23.1875 -14.796875 C 24.84375 -13.273438 25.671875 -11.203125 25.671875 -8.578125 C 25.671875 -5.785156 24.570312 -3.523438 22.375 -1.796875 C 20.175781 -0.078125 16.941406 0.78125 12.671875 0.78125 C 11.148438 0.78125 9.738281 0.65625 8.4375 0.40625 C 7.144531 0.164062 6.015625 -0.1875 5.046875 -0.65625 C 4.078125 -1.132812 3.320312 -1.726562 2.78125 -2.4375 C 2.238281 -3.144531 1.96875 -3.957031 1.96875 -4.875 C 1.96875 -5.832031 2.242188 -6.644531 2.796875 -7.3125 C 3.359375 -7.988281 3.96875 -8.507812 4.625 -8.875 C 5.550781 -8.144531 6.675781 -7.515625 8 -6.984375 C 9.332031 -6.460938 10.789062 -6.203125 12.375 -6.203125 C 13.976562 -6.203125 15.109375 -6.445312 15.765625 -6.9375 C 16.421875 -7.4375 16.75 -8.015625 16.75 -8.671875 C 16.75 -9.328125 16.484375 -9.828125 15.953125 -10.171875 C 15.429688 -10.515625 14.695312 -10.851562 13.75 -11.1875 Z M 11.671875 -11.875 "/></g></g></g></svg>