<?xml version="1.0" standalone="no"?>
<svg xmlns:xlink="http://www.w3.org/1999/xlink" id="wave" style="transform:rotate(180deg); transition: 0.3s" viewBox="0 0 1440 100" version="1.1" xmlns="http://www.w3.org/2000/svg"><defs><linearGradient id="sw-gradient-0" x1="0" x2="0" y1="1" y2="0"><stop stop-color="rgba(198, 157, 63, 1)" offset="0%"/><stop stop-color="rgba(213, 172, 78, 1)" offset="100%"/></linearGradient></defs><path style="transform:translate(0, 0px); opacity:1" fill="url(#sw-gradient-0)" d="M0,30L40,33.3C80,37,160,43,240,40C320,37,400,23,480,15C560,7,640,3,720,6.7C800,10,880,20,960,26.7C1040,33,1120,37,1200,31.7C1280,27,1360,13,1440,11.7C1520,10,1600,20,1680,26.7C1760,33,1840,37,1920,38.3C2000,40,2080,40,2160,40C2240,40,2320,40,2400,46.7C2480,53,2560,67,2640,63.3C2720,60,2800,40,2880,26.7C2960,13,3040,7,3120,5C3200,3,3280,7,3360,16.7C3440,27,3520,43,3600,43.3C3680,43,3760,27,3840,25C3920,23,4000,37,4080,48.3C4160,60,4240,70,4320,71.7C4400,73,4480,67,4560,68.3C4640,70,4720,80,4800,73.3C4880,67,4960,43,5040,36.7C5120,30,5200,40,5280,46.7C5360,53,5440,57,5520,61.7C5600,67,5680,73,5720,76.7L5760,80L5760,100L5720,100C5680,100,5600,100,5520,100C5440,100,5360,100,5280,100C5200,100,5120,100,5040,100C4960,100,4880,100,4800,100C4720,100,4640,100,4560,100C4480,100,4400,100,4320,100C4240,100,4160,100,4080,100C4000,100,3920,100,3840,100C3760,100,3680,100,3600,100C3520,100,3440,100,3360,100C3280,100,3200,100,3120,100C3040,100,2960,100,2880,100C2800,100,2720,100,2640,100C2560,100,2480,100,2400,100C2320,100,2240,100,2160,100C2080,100,2000,100,1920,100C1840,100,1760,100,1680,100C1600,100,1520,100,1440,100C1360,100,1280,100,1200,100C1120,100,1040,100,960,100C880,100,800,100,720,100C640,100,560,100,480,100C400,100,320,100,240,100C160,100,80,100,40,100L0,100Z"/></svg>