<?xml version="1.0" standalone="no"?>
<svg xmlns:xlink="http://www.w3.org/1999/xlink" id="wave" style="transform:rotate(180deg); transition: 0.3s" viewBox="0 0 1440 490" version="1.1" xmlns="http://www.w3.org/2000/svg"><defs><linearGradient id="sw-gradient-0" x1="0" x2="0" y1="1" y2="0"><stop stop-color="rgba(243, 106, 62, 1)" offset="0%"/><stop stop-color="rgba(255, 179, 11, 1)" offset="100%"/></linearGradient></defs><path style="transform:translate(0, 0px); opacity:1" fill="url(#sw-gradient-0)" d="M0,392L48,400.2C96,408,192,425,288,400.2C384,376,480,310,576,285.8C672,261,768,278,864,245C960,212,1056,131,1152,114.3C1248,98,1344,147,1440,212.3C1536,278,1632,359,1728,400.2C1824,441,1920,441,2016,416.5C2112,392,2208,343,2304,285.8C2400,229,2496,163,2592,163.3C2688,163,2784,229,2880,228.7C2976,229,3072,163,3168,179.7C3264,196,3360,294,3456,334.8C3552,376,3648,359,3744,318.5C3840,278,3936,212,4032,179.7C4128,147,4224,147,4320,163.3C4416,180,4512,212,4608,236.8C4704,261,4800,278,4896,236.8C4992,196,5088,98,5184,98C5280,98,5376,196,5472,269.5C5568,343,5664,392,5760,392C5856,392,5952,343,6048,334.8C6144,327,6240,359,6336,343C6432,327,6528,261,6624,212.3C6720,163,6816,131,6864,114.3L6912,98L6912,490L6864,490C6816,490,6720,490,6624,490C6528,490,6432,490,6336,490C6240,490,6144,490,6048,490C5952,490,5856,490,5760,490C5664,490,5568,490,5472,490C5376,490,5280,490,5184,490C5088,490,4992,490,4896,490C4800,490,4704,490,4608,490C4512,490,4416,490,4320,490C4224,490,4128,490,4032,490C3936,490,3840,490,3744,490C3648,490,3552,490,3456,490C3360,490,3264,490,3168,490C3072,490,2976,490,2880,490C2784,490,2688,490,2592,490C2496,490,2400,490,2304,490C2208,490,2112,490,2016,490C1920,490,1824,490,1728,490C1632,490,1536,490,1440,490C1344,490,1248,490,1152,490C1056,490,960,490,864,490C768,490,672,490,576,490C480,490,384,490,288,490C192,490,96,490,48,490L0,490Z"/></svg>